<?xml version="1.0" standalone="no"?>
<!DOCTYPE svg PUBLIC "-//W3C//DTD SVG 20010904//EN"
 "http://www.w3.org/TR/2001/REC-SVG-20010904/DTD/svg10.dtd">
<svg version="1.0" xmlns="http://www.w3.org/2000/svg"
 width="512.000000pt" height="512.000000pt" viewBox="0 0 512.000000 512.000000"
 preserveAspectRatio="xMidYMid meet">

<g transform="translate(0.000000,512.000000) scale(0.100000,-0.100000)"
fill="#000000" stroke="none">
<path d="M2340 5109 c-599 -51 -1150 -309 -1581 -739 -211 -210 -343 -389
-470 -635 -384 -744 -384 -1611 1 -2353 240 -462 624 -848 1081 -1086 571
-297 1211 -372 1830 -212 185 47 304 92 494 186 423 209 779 530 1039 940 64
100 186 351 231 474 87 238 154 597 155 829 l0 47 -1280 0 -1280 0 0 1280 0
1280 -62 -1 c-35 -1 -106 -5 -158 -10z m-730 -1139 l81 -250 266 -2 267 -3
-212 -153 c-117 -84 -212 -159 -212 -165 0 -7 35 -121 79 -254 43 -134 76
-243 74 -243 -3 0 -100 69 -215 153 -116 83 -212 152 -215 151 -3 -1 -99 -70
-215 -154 -115 -83 -211 -150 -213 -148 -2 1 32 113 76 247 43 134 79 246 79
250 0 4 -96 77 -212 162 l-213 154 266 3 265 2 79 243 c80 247 83 257 90 257
2 0 41 -112 85 -250z"/>
</g>
</svg>
